<svg width="155" height="83" viewBox="0 0 155 83" fill="none" xmlns="http://www.w3.org/2000/svg">
<path d="M28.257 27.1132C31.7482 24.0584 35.1849 22.3673 38.6215 22.0946C42.0036 21.8764 45.1675 22.6401 48.1133 24.4948C51.0044 26.3495 53.4046 28.9133 55.3139 32.1318C55.3684 32.1863 55.3684 32.1863 55.3684 32.2409C56.1867 33.4955 57.1686 35.5684 58.3687 38.3505C59.5688 41.1871 60.2779 46.8603 60.4416 55.4247C60.6052 63.9891 61.3144 72.7717 62.6236 81.7179H37.4214C38.076 79.3177 38.7852 76.0447 39.4943 71.8443C40.1489 67.644 40.6944 60.8797 41.1308 51.4971C41.5672 42.169 40.4762 35.7866 37.8033 32.35C35.0758 28.9679 32.5119 28.6406 30.0026 31.4772C27.5478 34.3138 25.9659 38.6233 25.3658 44.4056C24.7112 50.2424 24.7112 55.6429 25.2022 60.607C25.7477 65.6256 26.3477 70.0987 27.0023 74.0263C27.6569 78.0085 28.1479 80.5723 28.3661 81.7724H3.16391C3.87306 78.3358 4.52766 73.4808 5.12772 67.2621C5.72777 61.0434 6.05507 54.2792 6.10962 46.9149C6.16417 39.6052 5.72777 32.5682 4.80042 25.804C3.87306 19.0397 2.29111 13.3665 0 8.83886L28.3661 0.383588C28.257 2.83835 27.8206 6.00226 26.8932 9.76622C26.0204 13.5847 24.984 17.6214 23.7839 21.8764C22.311 27.1677 21.0564 32.1318 20.0745 36.7685C19.038 41.4599 18.7653 45.0056 19.1471 47.4604H21.1109C21.1655 44.1328 21.6564 40.6416 22.6383 36.9322C23.5657 33.2228 25.4749 29.9498 28.257 27.1132Z" fill="white"/>
<path d="M90.2805 21.9309C89.0804 33.5501 88.7531 43.751 89.2986 52.6426C89.8441 61.5343 90.826 71.2443 92.2443 81.7179H67.5331C68.6241 75.1173 69.2787 68.1349 69.4969 60.7161C69.7151 53.3518 69.5515 46.5876 68.8969 40.478C68.2968 34.4229 67.2604 30.0043 65.733 27.2768L90.2805 21.9309ZM74.2973 1.09274C70.9698 2.45649 68.515 4.4203 66.9331 7.03871C65.3511 9.65712 65.0784 12.3301 66.0057 15.003C67.0967 17.6214 69.1151 19.367 72.0062 20.2399C74.9519 21.1127 78.1158 20.949 81.498 19.6943C84.8801 18.3306 87.3348 16.3122 88.9168 13.6938C90.4442 11.0754 90.7715 8.45701 89.8441 5.78405C88.7531 3.16565 86.7348 1.42004 83.7891 0.547238C80.8979 -0.325565 77.734 -0.161914 74.2973 1.09274Z" fill="white"/>
<path d="M124.211 22.0946C129.829 22.0946 135.012 23.5129 139.703 26.1858C144.34 28.9133 148.049 32.5682 150.777 37.1504C153.559 41.7326 154.977 46.8058 154.977 52.3699C154.977 57.934 153.559 63.0617 150.777 67.5894C148.049 72.1716 144.34 75.8265 139.703 78.554C135.012 81.2815 129.829 82.6998 124.211 82.6998C118.538 82.6998 113.355 81.2815 108.664 78.554C104.027 75.8265 100.372 72.1716 97.5903 67.5894C94.8082 63.0617 93.3899 57.934 93.3899 52.3699C93.3899 46.8058 94.8082 41.7326 97.5903 37.1504C100.372 32.5682 104.027 28.9133 108.664 26.1858C113.355 23.5129 118.538 22.0946 124.211 22.0946ZM115.865 27.4405C115.646 27.4405 115.428 27.4405 115.21 27.495C113.355 27.7678 112.101 29.1861 111.337 31.6954C110.573 34.2047 110.41 37.4232 110.9 41.2962C111.282 45.2238 112.319 49.4242 113.955 54.1155C115.592 58.8068 117.556 62.8981 119.792 66.5529C121.974 70.2078 124.265 73.0444 126.502 74.9537C128.848 76.972 130.92 77.8994 132.83 77.5721C134.63 77.2993 135.939 75.881 136.648 73.3717C137.357 70.9715 137.521 67.753 137.085 63.8254C136.648 59.8978 135.666 55.6429 134.03 50.9516C132.339 46.2603 130.429 42.169 128.193 38.5687C126.011 34.9684 123.72 32.1318 121.429 30.1134C119.41 28.3678 117.556 27.4405 115.865 27.4405Z" fill="white"/>
</svg>
